# xmcd CD database file
#
# Track frame offsets:
#	150
#	13436
#	28584
#	41219
#	53167
#	69072
#	124188
#	135728
#	150522
#	165171
#
# Disc length: 2383 seconds
#
# Revision: 0
# Processed by: cddbd v1.5.1PL2 Copyright (c) Steve Scherf et al.
# Submitted via: CDex 1.51
#
DISCID=7c094d0a
DTITLE=Various Artist - Big Band Swing Classics
DYEAR=2005
DGENRE=Jazz
TTITLE0=Duke Ellington - Take the 'A' Train
TTITLE1=Charlie Barnet - Cherokee
TTITLE2=Fats Waller - The Joint Is Jumpin'
TTITLE3=Louis Prima - All of Me
TTITLE4=Glenn Miller - Tuxedo Junction
TTITLE5=Benny Goodman - Sing Sing Sing
TTITLE6=Count Basie - Red Bank Boogie
TTITLE7=Cab Calloway - Minnie the Moocher
TTITLE8=Woody Herman - Four Brothers
TTITLE9=Gene Krupa - Let Me Off Uptown
EXTD=YEAR: 2005
EXTT0=
EXTT1=
EXTT2=
EXTT3=
EXTT4=
EXTT5=
EXTT6=
EXTT7=
EXTT8=
EXTT9=
PLAYORDER=
